<?xml version="1.0" encoding="UTF-8" standalone="no"?>
<svg
   xmlns:dc="http://purl.org/dc/elements/1.1/"
   xmlns:cc="http://web.resource.org/cc/"
   xmlns:rdf="http://www.w3.org/1999/02/22-rdf-syntax-ns#"
   xmlns:svg="http://www.w3.org/2000/svg"
   xmlns="http://www.w3.org/2000/svg"
   xmlns:sodipodi="http://inkscape.sourceforge.net/DTD/sodipodi-0.dtd"
   xmlns:inkscape="http://www.inkscape.org/namespaces/inkscape"
   width="27cm"
   height="8cm"
   viewBox="2 2 27 8"
   id="svg1433"
   sodipodi:version="0.32"
   inkscape:version="0.43"
   sodipodi:docname="PMethodDiagram.eps.svg"
   sodipodi:docbase="/home/kenny/workdir/pgist/docs/GranularityPresentation">
  <metadata
     id="metadata1542">
    <rdf:RDF>
      <cc:Work
         rdf:about="">
        <dc:format>image/svg+xml</dc:format>
        <dc:type
           rdf:resource="http://purl.org/dc/dcmitype/StillImage" />
      </cc:Work>
    </rdf:RDF>
  </metadata>
  <defs
     id="defs1540" />
  <sodipodi:namedview
     inkscape:window-height="751"
     inkscape:window-width="1254"
     inkscape:pageshadow="2"
     inkscape:pageopacity="0.0"
     borderopacity="1.0"
     bordercolor="#666666"
     pagecolor="#ffffff"
     id="base"
     inkscape:zoom="0.71914402"
     inkscape:cx="478.34647"
     inkscape:cy="141.73228"
     inkscape:window-x="0"
     inkscape:window-y="0"
     inkscape:current-layer="svg1433" />
  <ellipse
     style="fill: #add8e6"
     cx="10"
     cy="6"
     rx="0.525"
     ry="0.525"
     id="ellipse1435" />
  <ellipse
     style="fill: none; fill-opacity:0; stroke-width: 0.08; stroke: #000000"
     cx="10"
     cy="6"
     rx="0.525"
     ry="0.525"
     id="ellipse1437" />
  <ellipse
     style="fill: #add8e6"
     cx="18"
     cy="6"
     rx="0.525"
     ry="0.525"
     id="ellipse1439" />
  <ellipse
     style="fill: none; fill-opacity:0; stroke-width: 0.08; stroke: #000000"
     cx="18"
     cy="6"
     rx="0.525"
     ry="0.525"
     id="ellipse1441" />
  <line
     style="fill: none; fill-opacity:0; stroke-width: 0.08; stroke: #000000"
     x1="18.525"
     y1="6"
     x2="19.5356"
     y2="6"
     id="line1443" />
  <polygon
     style="fill: #000000"
     points="19.9106,6 19.4106,6.25 19.5356,6 19.4106,5.75 "
     id="polygon1445" />
  <polygon
     style="fill: none; fill-opacity:0; stroke-width: 0.08; stroke: #000000"
     points="19.9106,6 19.4106,6.25 19.5356,6 19.4106,5.75 "
     id="polygon1447" />
  <line
     style="fill: none; fill-opacity:0; stroke-width: 0.08; stroke: #000000"
     x1="15.815"
     y1="7.99"
     x2="17.2823"
     y2="6.68048"
     id="line1449" />
  <polygon
     style="fill: #000000"
     points="17.5621,6.43079 17.3555,6.95023 17.2823,6.68048 17.0226,6.57719 "
     id="polygon1451" />
  <polygon
     style="fill: none; fill-opacity:0; stroke-width: 0.08; stroke: #000000"
     points="17.5621,6.43079 17.3555,6.95023 17.2823,6.68048 17.0226,6.57719 "
     id="polygon1453" />
  <line
     style="fill: none; fill-opacity:0; stroke-width: 0.08; stroke: #000000"
     x1="16"
     y1="3.98"
     x2="17.3024"
     y2="5.29836"
     id="line1455" />
  <polygon
     style="fill: #000000"
     points="17.5659,5.56514 17.0367,5.38514 17.3024,5.29836 17.3924,5.03374 "
     id="polygon1457" />
  <polygon
     style="fill: none; fill-opacity:0; stroke-width: 0.08; stroke: #000000"
     points="17.5659,5.56514 17.0367,5.38514 17.3024,5.29836 17.3924,5.03374 "
     id="polygon1459" />
  <line
     style="fill: none; fill-opacity:0; stroke-width: 0.08; stroke: #000000"
     x1="25.23"
     y1="6"
     x2="26.0106"
     y2="6"
     id="line1461" />
  <polygon
     style="fill: #000000"
     points="26.3856,6 25.8856,6.25 26.0106,6 25.8856,5.75 "
     id="polygon1463" />
  <polygon
     style="fill: none; fill-opacity:0; stroke-width: 0.08; stroke: #000000"
     points="26.3856,6 25.8856,6.25 26.0106,6 25.8856,5.75 "
     id="polygon1465" />
  <line
     style="fill: none; fill-opacity:0; stroke-width: 0.08; stroke: #000000"
     x1="10.3712"
     y1="5.62877"
     x2="11.6736"
     y2="4.31041"
     id="line1467" />
  <polygon
     style="fill: #000000"
     points="11.9371,4.04363 11.7636,4.57503 11.6736,4.31041 11.4079,4.22363 "
     id="polygon1469" />
  <polygon
     style="fill: none; fill-opacity:0; stroke-width: 0.08; stroke: #000000"
     points="11.9371,4.04363 11.7636,4.57503 11.6736,4.31041 11.4079,4.22363 "
     id="polygon1471" />
  <line
     style="fill: none; fill-opacity:0; stroke-width: 0.08; stroke: #000000"
     x1="10.3712"
     y1="6.37123"
     x2="11.8385"
     y2="7.68075"
     id="line1473" />
  <polygon
     style="fill: #000000"
     points="12.1183,7.93044 11.5788,7.78404 11.8385,7.68075 11.9117,7.411 "
     id="polygon1475" />
  <polygon
     style="fill: none; fill-opacity:0; stroke-width: 0.08; stroke: #000000"
     points="12.1183,7.93044 11.5788,7.78404 11.8385,7.68075 11.9117,7.411 "
     id="polygon1477" />
  <ellipse
     style="fill: #add8e6"
     cx="27"
     cy="6"
     rx="0.525"
     ry="0.525"
     id="ellipse1479" />
  <ellipse
     style="fill: none; fill-opacity:0; stroke-width: 0.08; stroke: #000000"
     cx="27"
     cy="6"
     rx="0.525"
     ry="0.525"
     id="ellipse1481" />
  <line
     style="fill: none; fill-opacity:0; stroke-width: 0.08; stroke: #000000"
     x1="27.525"
     y1="6"
     x2="28.5356"
     y2="6"
     id="line1483" />
  <polygon
     style="fill: #000000"
     points="28.9106,6 28.4106,6.25 28.5356,6 28.4106,5.75 "
     id="polygon1485" />
  <polygon
     style="fill: none; fill-opacity:0; stroke-width: 0.08; stroke: #000000"
     points="28.9106,6 28.4106,6.25 28.5356,6 28.4106,5.75 "
     id="polygon1487" />
  <polyline
     style="fill: none; fill-opacity:0; stroke-width: 0.08; stroke: #000000"
     points="27,5.475 27,2.04 5.74,2.04 5.74,4.28556 "
     id="polyline1489" />
  <polygon
     style="fill: #000000"
     points="5.74,4.66056 5.49,4.16056 5.74,4.28556 5.99,4.16056 "
     id="polygon1491" />
  <polygon
     style="fill: none; fill-opacity:0; stroke-width: 0.08; stroke: #000000"
     points="5.74,4.66056 5.49,4.16056 5.74,4.28556 5.99,4.16056 "
     id="polygon1493" />
  <rect
     style="fill: #e0b7fa"
     x="3.6"
     y="4.75"
     width="4.28"
     height="2.48"
     id="rect1495" />
  <rect
     style="fill: none; fill-opacity:0; stroke-width: 0.08; stroke: #000000"
     x="3.6"
     y="4.75"
     width="4.28"
     height="2.48"
     id="rect1497" />
  <text
     style="fill:#000000;text-anchor:middle;font-size:0.67733333;font-family:Arial;font-style:normal;font-weight:bold;font-stretch:normal;font-variant:normal;text-align:center;writing-mode:lr;line-height:125%"
     x="5.74"
     y="5.69"
     id="text1499"
     sodipodi:linespacing="125%">PGame:</text>
  <text
     style="fill:#000000;text-anchor:middle;font-size:0.67733333;font-family:Arial;font-style:normal;font-weight:bold;font-stretch:normal;font-variant:normal;text-align:center;writing-mode:lr;line-height:125%"
     x="5.74"
     y="6.69"
     id="text1501"
     sodipodi:linespacing="125%">Concerns</text>
  <line
     style="fill: none; fill-opacity:0; stroke-width: 0.08; stroke: #000000"
     x1="2.3"
     y1="6"
     x2="3.13557"
     y2="5.99357"
     id="line1503" />
  <polygon
     style="fill: #000000"
     points="3.51056,5.99069 3.0125,6.24453 3.13557,5.99357 3.00865,5.74454 "
     id="polygon1505" />
  <polygon
     style="fill: none; fill-opacity:0; stroke-width: 0.08; stroke: #000000"
     points="3.51056,5.99069 3.0125,6.24453 3.13557,5.99357 3.00865,5.74454 "
     id="polygon1507" />
  <line
     style="fill: none; fill-opacity:0; stroke-width: 0.08; stroke: #000000"
     x1="7.88"
     y1="5.99"
     x2="9.01057"
     y2="5.99709"
     id="line1509" />
  <polygon
     style="fill: #000000"
     points="9.38556,5.99944 8.884,6.2463 9.01057,5.99709 8.88714,5.74631 "
     id="polygon1511" />
  <polygon
     style="fill: none; fill-opacity:0; stroke-width: 0.08; stroke: #000000"
     points="9.38556,5.99944 8.884,6.2463 9.01057,5.99709 8.88714,5.74631 "
     id="polygon1513" />
  <rect
     style="fill: #e0b7fa"
     x="12"
     y="2.74"
     width="4"
     height="2.48"
     id="rect1515" />
  <rect
     style="fill: none; fill-opacity:0; stroke-width: 0.08; stroke: #000000"
     x="12"
     y="2.74"
     width="4"
     height="2.48"
     id="rect1517" />
  <text
     style="fill:#000000;text-anchor:middle;font-size:0.67733333;font-family:Arial;font-style:normal;font-weight:bold;font-stretch:normal;font-variant:normal;text-align:center;writing-mode:lr;line-height:125%"
     x="14"
     y="3.68"
     id="text1519"
     sodipodi:linespacing="125%">PGame:</text>
  <text
     style="fill:#000000;text-anchor:middle;font-size:0.67733333;font-family:Arial;font-style:normal;font-weight:bold;font-stretch:normal;font-variant:normal;text-align:center;writing-mode:lr;line-height:125%"
     x="14"
     y="4.68"
     id="text1521"
     sodipodi:linespacing="125%">Voting</text>
  <rect
     style="fill: #e0b7fa"
     x="12.185"
     y="6.75"
     width="3.63"
     height="2.48"
     id="rect1523" />
  <rect
     style="fill: none; fill-opacity:0; stroke-width: 0.08; stroke: #000000"
     x="12.185"
     y="6.75"
     width="3.63"
     height="2.48"
     id="rect1525" />
  <text
     style="fill:#000000;text-anchor:middle;font-size:0.67733333;font-family:Arial;font-style:normal;font-weight:bold;font-stretch:normal;font-variant:normal;text-align:center;writing-mode:lr;line-height:125%"
     x="14"
     y="7.69"
     id="text1527"
     sodipodi:linespacing="125%">PGame:</text>
  <text
     style="fill:#000000;text-anchor:middle;font-size:0.67733333;font-family:Arial;font-style:normal;font-weight:bold;font-stretch:normal;font-variant:normal;text-align:center;writing-mode:lr;line-height:125%"
     x="14"
     y="8.69"
     id="text1529"
     sodipodi:linespacing="125%">Voting</text>
  <rect
     style="fill: #e0b7fa"
     x="20"
     y="4.76"
     width="5.23"
     height="2.48"
     id="rect1531" />
  <rect
     style="fill: none; fill-opacity:0; stroke-width: 0.08; stroke: #000000"
     x="20"
     y="4.76"
     width="5.23"
     height="2.48"
     id="rect1533" />
  <text
     style="fill:#000000;text-anchor:middle;font-size:0.67733333;font-family:Arial;font-style:normal;font-weight:bold;font-stretch:normal;font-variant:normal;text-align:center;writing-mode:lr;line-height:125%"
     x="22.615"
     y="5.7"
     id="text1535"
     sodipodi:linespacing="125%">PGame:</text>
  <text
     style="font-size:0.67733333;font-style:normal;font-variant:normal;font-weight:bold;font-stretch:normal;text-align:center;line-height:125%;writing-mode:lr;text-anchor:middle;fill:#000000;font-family:Arial"
     x="22.615"
     y="6.6999998"
     id="text1537"
     sodipodi:linespacing="125%">Snythesizing</text>
</svg>
