<?xml version="1.0" encoding="UTF-8" standalone="no"?>
<svg
   xmlns:dc="http://purl.org/dc/elements/1.1/"
   xmlns:cc="http://web.resource.org/cc/"
   xmlns:rdf="http://www.w3.org/1999/02/22-rdf-syntax-ns#"
   xmlns:svg="http://www.w3.org/2000/svg"
   xmlns="http://www.w3.org/2000/svg"
   xmlns:sodipodi="http://inkscape.sourceforge.net/DTD/sodipodi-0.dtd"
   xmlns:inkscape="http://www.inkscape.org/namespaces/inkscape"
   width="27cm"
   height="8cm"
   viewBox="2 2 27 8"
   id="svg1307"
   sodipodi:version="0.32"
   inkscape:version="0.43"
   sodipodi:docname="SituationDiagram.eps.svg"
   sodipodi:docbase="/home/kenny/workdir/pgist/docs/GranularityPresentation">
  <metadata
     id="metadata1416">
    <rdf:RDF>
      <cc:Work
         rdf:about="">
        <dc:format>image/svg+xml</dc:format>
        <dc:type
           rdf:resource="http://purl.org/dc/dcmitype/StillImage" />
      </cc:Work>
    </rdf:RDF>
  </metadata>
  <defs
     id="defs1414" />
  <sodipodi:namedview
     inkscape:window-height="751"
     inkscape:window-width="1254"
     inkscape:pageshadow="2"
     inkscape:pageopacity="0.0"
     borderopacity="1.0"
     bordercolor="#666666"
     pagecolor="#ffffff"
     id="base"
     inkscape:zoom="0.71914402"
     inkscape:cx="478.34647"
     inkscape:cy="141.73228"
     inkscape:window-x="0"
     inkscape:window-y="0"
     inkscape:current-layer="svg1307" />
  <ellipse
     style="fill: #add8e6"
     cx="10.2403"
     cy="6"
     rx="0.525"
     ry="0.525"
     id="ellipse1309" />
  <ellipse
     style="fill: none; fill-opacity:0; stroke-width: 0.08; stroke: #000000"
     cx="10.2403"
     cy="6"
     rx="0.525"
     ry="0.525"
     id="ellipse1311" />
  <ellipse
     style="fill: #add8e6"
     cx="18.2403"
     cy="6"
     rx="0.525"
     ry="0.525"
     id="ellipse1313" />
  <ellipse
     style="fill: none; fill-opacity:0; stroke-width: 0.08; stroke: #000000"
     cx="18.2403"
     cy="6"
     rx="0.525"
     ry="0.525"
     id="ellipse1315" />
  <line
     style="fill: none; fill-opacity:0; stroke-width: 0.08; stroke: #000000"
     x1="18.7653"
     y1="6"
     x2="19.7759"
     y2="6"
     id="line1317" />
  <polygon
     style="fill: #000000"
     points="20.1509,6 19.6509,6.25 19.7759,6 19.6509,5.75 "
     id="polygon1319" />
  <polygon
     style="fill: none; fill-opacity:0; stroke-width: 0.08; stroke: #000000"
     points="20.1509,6 19.6509,6.25 19.7759,6 19.6509,5.75 "
     id="polygon1321" />
  <line
     style="fill: none; fill-opacity:0; stroke-width: 0.08; stroke: #000000"
     x1="16.4303"
     y1="7.99"
     x2="17.5606"
     y2="6.71837"
     id="line1323" />
  <polygon
     style="fill: #000000"
     points="17.8097,6.43808 17.6644,6.97788 17.5606,6.71837 17.2907,6.64572 "
     id="polygon1325" />
  <polygon
     style="fill: none; fill-opacity:0; stroke-width: 0.08; stroke: #000000"
     points="17.8097,6.43808 17.6644,6.97788 17.5606,6.71837 17.2907,6.64572 "
     id="polygon1327" />
  <line
     style="fill: none; fill-opacity:0; stroke-width: 0.08; stroke: #000000"
     x1="16.4303"
     y1="3.98"
     x2="17.5637"
     y2="5.27883"
     id="line1329" />
  <polygon
     style="fill: #000000"
     points="17.8103,5.56138 17.2932,5.34903 17.5637,5.27883 17.6699,5.02028 "
     id="polygon1331" />
  <polygon
     style="fill: none; fill-opacity:0; stroke-width: 0.08; stroke: #000000"
     points="17.8103,5.56138 17.2932,5.34903 17.5637,5.27883 17.6699,5.02028 "
     id="polygon1333" />
  <line
     style="fill: none; fill-opacity:0; stroke-width: 0.08; stroke: #000000"
     x1="25.4703"
     y1="6"
     x2="26.2509"
     y2="6"
     id="line1335" />
  <polygon
     style="fill: #000000"
     points="26.6259,6 26.1259,6.25 26.2509,6 26.1259,5.75 "
     id="polygon1337" />
  <polygon
     style="fill: none; fill-opacity:0; stroke-width: 0.08; stroke: #000000"
     points="26.6259,6 26.1259,6.25 26.2509,6 26.1259,5.75 "
     id="polygon1339" />
  <line
     style="fill: none; fill-opacity:0; stroke-width: 0.08; stroke: #000000"
     x1="10.6115"
     y1="5.62877"
     x2="11.7449"
     y2="4.32994"
     id="line1341" />
  <polygon
     style="fill: #000000"
     points="11.9915,4.04739 11.8511,4.58849 11.7449,4.32994 11.4744,4.25974 "
     id="polygon1343" />
  <polygon
     style="fill: none; fill-opacity:0; stroke-width: 0.08; stroke: #000000"
     points="11.9915,4.04739 11.8511,4.58849 11.7449,4.32994 11.4744,4.25974 "
     id="polygon1345" />
  <line
     style="fill: none; fill-opacity:0; stroke-width: 0.08; stroke: #000000"
     x1="10.6115"
     y1="6.37123"
     x2="11.7418"
     y2="7.64286"
     id="line1347" />
  <polygon
     style="fill: #000000"
     points="11.9909,7.92315 11.4719,7.71551 11.7418,7.64286 11.8456,7.38335 "
     id="polygon1349" />
  <polygon
     style="fill: none; fill-opacity:0; stroke-width: 0.08; stroke: #000000"
     points="11.9909,7.92315 11.4719,7.71551 11.7418,7.64286 11.8456,7.38335 "
     id="polygon1351" />
  <ellipse
     style="fill: #add8e6"
     cx="27.2403"
     cy="6"
     rx="0.525"
     ry="0.525"
     id="ellipse1353" />
  <ellipse
     style="fill: none; fill-opacity:0; stroke-width: 0.08; stroke: #000000"
     cx="27.2403"
     cy="6"
     rx="0.525"
     ry="0.525"
     id="ellipse1355" />
  <line
     style="fill: none; fill-opacity:0; stroke-width: 0.08; stroke: #000000"
     x1="27.7653"
     y1="6"
     x2="28.7759"
     y2="6"
     id="line1357" />
  <polygon
     style="fill: #000000"
     points="29.1509,6 28.6509,6.25 28.7759,6 28.6509,5.75 "
     id="polygon1359" />
  <polygon
     style="fill: none; fill-opacity:0; stroke-width: 0.08; stroke: #000000"
     points="29.1509,6 28.6509,6.25 28.7759,6 28.6509,5.75 "
     id="polygon1361" />
  <polyline
     style="fill: none; fill-opacity:0; stroke-width: 0.08; stroke: #000000"
     points="27.2403,5.475 27.2403,2.04 5.98031,2.04 5.98031,4.28556 "
     id="polyline1363" />
  <polygon
     style="fill: #000000"
     points="5.98031,4.66056 5.73031,4.16056 5.98031,4.28556 6.23031,4.16056 "
     id="polygon1365" />
  <polygon
     style="fill: none; fill-opacity:0; stroke-width: 0.08; stroke: #000000"
     points="5.98031,4.66056 5.73031,4.16056 5.98031,4.28556 6.23031,4.16056 "
     id="polygon1367" />
  <rect
     style="fill: #e0b7fa"
     x="3.79031"
     y="4.75"
     width="4.38"
     height="2.48"
     id="rect1369" />
  <rect
     style="fill: none; fill-opacity:0; stroke-width: 0.08; stroke: #000000"
     x="3.79031"
     y="4.75"
     width="4.38"
     height="2.48"
     id="rect1371" />
  <text
     style="fill:#000000;text-anchor:middle;font-size:0.67733333;font-family:Arial;font-style:normal;font-weight:bold;font-stretch:normal;font-variant:normal;text-align:center;writing-mode:lr;line-height:125%"
     x="5.98031"
     y="5.69"
     id="text1373"
     sodipodi:linespacing="125%">Meeting:</text>
  <text
     style="fill:#000000;text-anchor:middle;font-size:0.67733333;font-family:Arial;font-style:normal;font-weight:bold;font-stretch:normal;font-variant:normal;text-align:center;writing-mode:lr;line-height:125%"
     x="5.98031"
     y="6.69"
     id="text1375"
     sodipodi:linespacing="125%">type1</text>
  <line
     style="fill: none; fill-opacity:0; stroke-width: 0.08; stroke: #000000"
     x1="2.54031"
     y1="6"
     x2="3.32588"
     y2="5.99372"
     id="line1377" />
  <polygon
     style="fill: #000000"
     points="3.70087,5.99072 3.20288,6.24471 3.32588,5.99372 3.19888,5.74472 "
     id="polygon1379" />
  <polygon
     style="fill: none; fill-opacity:0; stroke-width: 0.08; stroke: #000000"
     points="3.70087,5.99072 3.20288,6.24471 3.32588,5.99372 3.19888,5.74472 "
     id="polygon1381" />
  <line
     style="fill: none; fill-opacity:0; stroke-width: 0.08; stroke: #000000"
     x1="8.17031"
     y1="5.99"
     x2="9.25087"
     y2="5.99699"
     id="line1383" />
  <polygon
     style="fill: #000000"
     points="9.62587,5.99942 9.12426,6.24618 9.25087,5.99699 9.12749,5.74619 "
     id="polygon1385" />
  <polygon
     style="fill: none; fill-opacity:0; stroke-width: 0.08; stroke: #000000"
     points="9.62587,5.99942 9.12426,6.24618 9.25087,5.99699 9.12749,5.74619 "
     id="polygon1387" />
  <rect
     style="fill: #e0b7fa"
     x="12.0503"
     y="2.74"
     width="4.38"
     height="2.48"
     id="rect1389" />
  <rect
     style="fill: none; fill-opacity:0; stroke-width: 0.08; stroke: #000000"
     x="12.0503"
     y="2.74"
     width="4.38"
     height="2.48"
     id="rect1391" />
  <text
     style="fill:#000000;text-anchor:middle;font-size:0.67733333;font-family:Arial;font-style:normal;font-weight:bold;font-stretch:normal;font-variant:normal;text-align:center;writing-mode:lr;line-height:125%"
     x="14.2403"
     y="3.68"
     id="text1393"
     sodipodi:linespacing="125%">Meeting:</text>
  <text
     style="fill:#000000;text-anchor:middle;font-size:0.67733333;font-family:Arial;font-style:normal;font-weight:bold;font-stretch:normal;font-variant:normal;text-align:center;writing-mode:lr;line-height:125%"
     x="14.2403"
     y="4.68"
     id="text1395"
     sodipodi:linespacing="125%">type2</text>
  <rect
     style="fill: #e0b7fa"
     x="12.0503"
     y="6.75"
     width="4.38"
     height="2.48"
     id="rect1397" />
  <rect
     style="fill: none; fill-opacity:0; stroke-width: 0.08; stroke: #000000"
     x="12.0503"
     y="6.75"
     width="4.38"
     height="2.48"
     id="rect1399" />
  <text
     style="fill:#000000;text-anchor:middle;font-size:0.67733333;font-family:Arial;font-style:normal;font-weight:bold;font-stretch:normal;font-variant:normal;text-align:center;writing-mode:lr;line-height:125%"
     x="14.2403"
     y="7.69"
     id="text1401"
     sodipodi:linespacing="125%">Meeting:</text>
  <text
     style="fill:#000000;text-anchor:middle;font-size:0.67733333;font-family:Arial;font-style:normal;font-weight:bold;font-stretch:normal;font-variant:normal;text-align:center;writing-mode:lr;line-height:125%"
     x="14.2403"
     y="8.69"
     id="text1403"
     sodipodi:linespacing="125%">type1</text>
  <rect
     style="fill: #e0b7fa"
     x="20.2403"
     y="4.76"
     width="5.23"
     height="2.48"
     id="rect1405" />
  <rect
     style="fill: none; fill-opacity:0; stroke-width: 0.08; stroke: #000000"
     x="20.2403"
     y="4.76"
     width="5.23"
     height="2.48"
     id="rect1407" />
  <text
     style="fill:#000000;text-anchor:middle;font-size:0.67733333;font-family:Arial;font-style:normal;font-weight:bold;font-stretch:normal;font-variant:normal;text-align:center;writing-mode:lr;line-height:125%"
     x="22.8553"
     y="5.7"
     id="text1409"
     sodipodi:linespacing="125%">Meeting:</text>
  <text
     style="fill:#000000;text-anchor:middle;font-size:0.67733333;font-family:Arial;font-style:normal;font-weight:bold;font-stretch:normal;font-variant:normal;text-align:center;writing-mode:lr;line-height:125%"
     x="22.8553"
     y="6.7"
     id="text1411"
     sodipodi:linespacing="125%">type3</text>
</svg>
